<svg width="512" height="512" viewBox="0 0 512 512" fill="none" xmlns="http://www.w3.org/2000/svg">
<g id="Type=Flat, showSymbol=False, showText=True">
<g id="Union">
<path fill-rule="evenodd" clip-rule="evenodd" d="M164.018 263.526C170.135 248.044 176.814 231.137 174.678 215.604C173.339 205.885 167.001 195.322 160.046 190.897C159.915 190.817 159.584 190.567 159.23 190.299C158.808 189.98 158.353 189.636 158.159 189.522C153.012 186.541 144.77 184.028 139.033 183.437C109.448 180.403 91.7988 193.548 81.6536 211.257C77.6624 218.212 75.0199 225.81 72.9592 233.862C70.6813 242.781 69.0465 253.596 70.3512 263.421C71.1342 269.306 74.3682 277.67 79.0456 282.548C89.3546 293.293 108.529 293.161 129.751 293.014C132.24 292.997 134.759 292.98 137.294 292.98C144.693 292.98 162.437 292.833 167.791 292.693C169.522 292.641 174.487 272.437 174.044 271.784C173.849 271.554 172.508 271.576 170.465 271.609C168.038 271.649 164.622 271.706 160.959 271.375C161.93 268.81 162.966 266.189 164.018 263.526ZM145.733 242.748C145.222 244.438 144.714 246.119 144.249 247.771L143.735 249.594C141.718 256.758 139.698 263.933 137.294 270.376C134.472 270.359 131.682 270.407 128.966 270.454C114.768 270.697 102.564 270.906 98.1711 261.682C95.2157 255.465 96.5461 247.049 98.1711 239.078C100.353 228.341 102.44 220.543 108.605 213.865C113.369 208.71 125.358 202.389 138.164 206.911C142.415 208.414 149.005 215.57 149.465 223.428C149.805 229.286 147.745 236.095 145.733 242.748Z" fill="#1A1918"/>
<path d="M485.196 193.722L512 193.869C512 193.869 462.167 261.394 458.098 266.898C457.711 267.42 457.265 267.953 456.803 268.507C455.685 269.845 454.47 271.299 453.751 272.984C451.177 278.973 448.535 292.111 448.535 292.111L424.01 292.232C424.01 292.232 427.826 278.539 427.669 271.245C427.574 266.884 426.02 262.526 424.464 258.161C423.747 256.149 423.029 254.135 422.453 252.118C420.609 245.65 418.105 232.992 418.105 232.992H443.319L446.796 246.902L485.196 193.722Z" fill="#1A1918"/>
<path d="M434.443 207.963C439.389 210.945 442.424 227.394 442.424 227.394C442.424 227.394 416.542 227.775 402.457 227.775H390.286L375.506 292.111H352.903C352.903 292.111 366.969 222.195 370.29 209.519C371.222 205.971 376.055 206.017 384.22 206.094C385.497 206.106 386.856 206.119 388.295 206.119H405.274C407.829 206.119 410.485 206.043 413.124 205.968C421.808 205.719 430.309 205.476 434.443 207.963Z" fill="#1A1918"/>
<path fill-rule="evenodd" clip-rule="evenodd" d="M347.904 257.404C347.904 257.404 353.39 233.01 350.512 222.629C350.347 222.039 350.187 221.398 350.023 220.74C349.476 218.548 348.88 216.162 347.904 214.805C343.166 208.197 333.463 205.902 327.038 205.242C309.972 203.494 295.766 208.058 287.916 213.936L287.502 214.245C285.311 215.878 283.466 217.253 281.831 219.152C281.203 219.881 280.526 220.699 279.944 221.542C279.714 221.867 279.463 222.146 279.213 222.424C278.915 222.756 278.616 223.087 278.352 223.498C277.909 224.172 277.449 225.212 276.951 226.34C276.639 227.048 276.311 227.79 275.963 228.497C275.271 229.905 274.611 231.55 274.076 232.885L274.005 233.062C269.293 244.833 264.486 266.802 268.789 278.269C269.425 279.965 270.841 282.112 271.327 282.765C271.541 283.052 271.749 283.356 271.956 283.659C272.338 284.217 272.719 284.774 273.136 285.224C275.493 287.764 278.979 289.554 282.7 290.441C301.54 294.936 339.21 293.049 339.21 293.049L343.827 272.601C343.827 272.601 317.17 273.802 304.434 272.184C304.201 272.154 303.916 272.124 303.592 272.09C301.268 271.843 296.894 271.379 294.505 269.289C292.14 267.221 289.35 262.325 291.394 259.144C292.527 257.372 296.334 257.397 300.271 257.423C301.378 257.43 302.495 257.437 303.565 257.404C319.257 256.926 347.904 257.404 347.904 257.404ZM326.821 230.383C329.916 235.165 329.212 239.295 329.212 239.295L295.523 239.078C295.523 239.078 295.141 224.524 314.781 225.142C321.736 225.359 324.178 226.306 326.821 230.383Z" fill="#1A1918"/>
<path d="M246.836 206.041L268.754 205.91C268.754 205.91 256.539 263.855 250.314 292.111H225.101C222.788 292.111 220.507 292.148 218.276 292.185C203.514 292.429 190.91 292.637 185.11 281.677C179.55 271.162 183.318 254.829 186.333 241.759C186.83 239.603 187.307 237.537 187.718 235.6C189.77 225.915 194.092 206.119 194.092 206.119L216.8 205.91C216.8 205.91 210.383 236.73 207.714 252.118C207.501 253.346 207.237 254.558 206.979 255.744C206.079 259.887 205.244 263.729 206.845 266.898C208.801 270.776 211.539 271.054 219.885 271.245C222.529 271.306 231.188 271.245 231.188 271.245L246.836 206.041Z" fill="#1A1918"/>
<path d="M66.1077 214.389C65.2209 218.642 64.3227 222.949 63.3961 226.906H39.0532C39.8033 224.01 40.4833 221.119 41.149 218.29C42.1575 214.004 43.133 209.858 44.2693 206.041C48.073 206.041 51.7462 206.065 55.5054 206.091C59.4447 206.118 63.479 206.145 67.8562 206.145C67.275 208.791 66.6938 211.579 66.1077 214.389Z" fill="#1A1918"/>
<path d="M61.6562 232.991H38.1835C36.993 236.904 30.698 263.229 28.6201 272.984C28.1553 275.17 27.7427 277.367 27.3364 279.531C24.6054 294.075 22.1588 307.104 6.01638 305.151C5.19602 308.167 4.27325 311.658 3.32131 315.259C2.21528 319.443 1.06989 323.775 0 327.686C2.04258 327.728 4.04128 327.801 5.99223 327.872C11.307 328.065 16.2675 328.245 20.7959 327.755C24.6031 327.339 31.4798 325.695 32.9674 324.278C33.2755 323.984 33.5351 323.911 33.8124 323.834C34.0753 323.761 34.3541 323.683 34.7053 323.408C42.5537 317.277 44.6514 308.867 47.505 297.426C47.585 297.105 47.6656 296.782 47.7469 296.457C52.5114 277.383 58.5879 249.98 61.6562 232.991Z" fill="#1A1918"/>
</g>
</g>
</svg>
